<svg width="194" height="80" viewBox="0 0 194 80" fill="none" xmlns="http://www.w3.org/2000/svg">
<g clip-path="url(#clip0_243_19)">
<path d="M0.23375 11.8225C-1.39333 7.44309 5.81616 5.72198 7.23648 8.97496L24.595 48.7587L40.6321 23.7801C42.0524 20.419 46.1156 20.419 47.6348 23.7801L63.8786 48.8668L71.16 31.4215C72.5804 27.6548 79.7898 29.4841 77.965 33.8635L67.4384 59.1394C66.3237 61.8878 61.856 61.6805 60.6334 59.1394L44.3896 33.3408L27.6424 59.1394C26.4198 61.5814 22.06 62.2933 20.7385 59.1394L0.23375 11.8225Z" fill="white"/>
<path d="M140.972 12.8317C139.147 8.7587 145.844 5.30748 147.875 9.88508L167.463 49.1552L186.853 9.77695C188.678 5.81209 195.375 8.25409 193.757 12.5253L161.171 77.4408C158.735 82.2257 152.343 79.6756 154.267 74.8997L163.202 56.6884L140.972 12.8317Z" fill="white"/>
<path d="M84.4373 34.4402C84.4373 19.581 96.7977 7.48822 111.828 7.98383C126.112 8.4524 137.349 20.4371 137.349 34.7646V58.3015C137.349 59.7973 136.135 61.0138 134.643 61.0138H132.198C130.706 61.0138 129.492 59.7973 129.492 58.3015V49.9933C126.058 56.4902 118.993 61.0138 110.938 61.0138C96.3123 61.0138 84.4283 49.1102 84.4283 34.4402M129.501 34.215C129.384 24.1767 121.177 15.9586 111.172 15.8415C100.762 15.7243 92.2941 24.1316 92.2941 34.4402C92.2941 44.7489 100.636 53.1381 110.947 53.1381C121.258 53.1381 129.618 44.6588 129.501 34.224" fill="white"/>
<path d="M75.3311 0.0630773C75.439 0.0360442 75.5469 0 75.6547 0H77.0032C77.0391 0.0810994 77.12 0.0540662 77.1829 0.0630773C77.6504 0.117143 78.0999 0.207254 78.5583 0.333408C81.8305 1.24352 84.5183 4.17211 84.779 8.04686C84.779 8.0829 84.779 8.12796 84.779 8.164V8.94796C84.779 8.94796 84.779 9.02906 84.779 9.06511C84.6801 10.5519 84.2126 11.9126 83.4036 13.1741C82.3518 14.8141 81.3091 16.4542 80.2573 18.0942C79.3044 19.599 78.3516 21.1039 77.3897 22.5997C76.8593 23.4197 75.6817 23.4197 75.1513 22.6087C75.1064 22.5276 75.0704 22.4555 75.0255 22.3834C73.0658 19.3016 71.0971 16.2199 69.1284 13.1471C67.9868 11.3719 67.5553 9.44357 67.843 7.344C68.3194 3.78464 71.178 0.774949 74.6929 0.153188C74.9086 0.117144 75.1334 0.117143 75.3491 0.0540662" fill="#F8AD1D"/>
<path d="M84.788 8.10091C84.788 8.10091 84.8149 8.08289 84.8329 8.08289V9.02003C84.8329 9.02003 84.797 9.02003 84.788 9.00201V8.0919" fill="#F8AD1D"/>
<path d="M79.3224 8.97505C79.3224 10.6511 77.965 12.0208 76.284 12.0208C74.603 12.0208 73.2456 10.6601 73.2456 8.97505C73.2456 7.28999 74.603 5.92932 76.284 5.92932C77.965 5.92932 79.3224 7.28999 79.3224 8.97505Z" fill="#273470"/>
</g>
<defs>
<clipPath id="clip0_243_19">
<rect width="194" height="80" fill="white"/>
</clipPath>
</defs>
</svg>
